<svg width="494" height="494" viewBox="0 0 494 494" fill="none" xmlns="http://www.w3.org/2000/svg">
<g id="right-arrow 1">
<g id="Group">
<g id="Group_2">
<path id="Vector" d="M287.502 46C184.663 46 101 130.886 101 235.234C101 339.567 184.663 424.456 287.502 424.456C390.34 424.456 474 339.567 474 235.234C474 130.886 390.34 46 287.502 46ZM343.746 238.115L260.359 322.719C258.844 324.259 256.165 324.259 254.647 322.719L247.859 315.841C246.29 314.242 246.293 311.638 247.862 310.039L319.636 237.225C320.174 236.673 320.48 235.921 320.48 235.13C320.48 234.351 320.171 233.593 319.636 233.044L247.992 160.355C247.236 159.588 246.813 158.558 246.813 157.447C246.813 156.358 247.233 155.321 247.989 154.56L254.768 147.676C255.527 146.909 256.546 146.483 257.625 146.483C258.711 146.477 259.721 146.909 260.48 147.676L343.746 232.157C344.517 232.936 344.935 233.976 344.92 235.176C344.935 236.293 344.517 237.336 343.746 238.115Z" fill="black"/>
</g>
</g>
</g>
</svg>
