<svg width="92" height="93" viewBox="0 0 92 93" fill="none" xmlns="http://www.w3.org/2000/svg">
<g id="undraw_cookie_love_ulvn 1" clip-path="url(#clip0)">
<g id="cookie-dots">
<path id="Vector" d="M69.5898 20.6456C70.4854 20.6456 71.2115 19.9197 71.2115 19.0243C71.2115 18.129 70.4854 17.4031 69.5898 17.4031C68.6941 17.4031 67.968 18.129 67.968 19.0243C67.968 19.9197 68.6941 20.6456 69.5898 20.6456Z" fill="#3F3D56"/>
<path id="Vector_2" d="M69.5898 33.4681C70.4854 33.4681 71.2115 32.7422 71.2115 31.8469C71.2115 30.9515 70.4854 30.2256 69.5898 30.2256C68.6941 30.2256 67.968 30.9515 67.968 31.8469C67.968 32.7422 68.6941 33.4681 69.5898 33.4681Z" fill="#3F3D56"/>
<path id="Vector_3" d="M85.8077 36.7105C86.7034 36.7105 87.4295 35.9847 87.4295 35.0893C87.4295 34.1939 86.7034 33.4681 85.8077 33.4681C84.912 33.4681 84.1859 34.1939 84.1859 35.0893C84.1859 35.9847 84.912 36.7105 85.8077 36.7105Z" fill="#3F3D56"/>
</g>
<path id="Vector_4" d="M48.2115 93.0116C81.1893 93.0116 107.923 91.6919 107.923 90.0639C107.923 88.436 81.1893 87.1162 48.2115 87.1162C15.2338 87.1162 -11.5 88.436 -11.5 90.0639C-11.5 91.6919 15.2338 93.0116 48.2115 93.0116Z" fill="#F2F2F2"/>
<path id="Vector_5" d="M83.1414 42.1868C82.4642 41.0701 80.0985 41.0989 80.0985 41.0989C77.9446 44.298 72.7672 40.8998 72.7672 40.8998C68.9217 42.6196 66.5754 37.139 66.5754 37.139C61.4011 36.3655 62.2005 30.9331 62.2005 30.9331C59.6262 30.4164 60.3485 25.7637 60.3485 25.7637C60.3485 25.7637 61.7769 24.5926 61.074 23.7358C60.6271 23.1911 60.5994 21.6279 60.6384 20.5608C57.2791 19.5395 53.7869 19.0217 50.2756 19.0243C30.6518 19.0243 14.7436 34.9271 14.7436 54.5441C14.7436 74.1612 30.6518 90.0639 50.2756 90.0639C69.8994 90.0639 85.8077 74.1612 85.8077 54.5441C85.8119 50.2824 85.0472 46.0548 83.5501 42.0644C83.3677 42.2701 83.2263 42.3267 83.1414 42.1868Z" fill="#3F3D56"/>
<path id="Vector_6" opacity="0.1" d="M83.1414 42.1868C82.4642 41.0701 80.0985 41.0989 80.0985 41.0989C77.9446 44.298 72.7672 40.8998 72.7672 40.8998C68.9217 42.6196 66.5754 37.139 66.5754 37.139C61.4011 36.3655 62.2005 30.9331 62.2005 30.9331C59.6262 30.4164 60.3485 25.7637 60.3485 25.7637C60.3485 25.7637 61.7769 24.5926 61.074 23.7358C60.6271 23.1911 60.5994 21.6279 60.6384 20.5608C57.2791 19.5395 53.7869 19.0217 50.2756 19.0243C30.6518 19.0243 14.7436 34.9271 14.7436 54.5441C14.7436 74.1612 30.6518 90.0639 50.2756 90.0639C69.8994 90.0639 85.8077 74.1612 85.8077 54.5441C85.8119 50.2824 85.0472 46.0548 83.5501 42.0644C83.3677 42.2701 83.2263 42.3267 83.1414 42.1868Z" fill="black"/>
<path id="Vector_7" d="M81.0357 42.0465C80.3916 40.9845 78.1417 41.0119 78.1417 41.0119C76.0932 44.0544 71.1692 40.8225 71.1692 40.8225C67.512 42.4582 65.2805 37.2458 65.2805 37.2458C60.3595 36.5102 61.1198 31.3437 61.1198 31.3437C58.6715 30.8523 59.3585 26.4274 59.3585 26.4274C59.3585 26.4274 60.717 25.3136 60.0485 24.4987C59.6234 23.9807 59.5971 22.494 59.6342 21.4791C56.4393 20.5078 53.118 20.0154 49.7787 20.0179C31.1155 20.0179 15.986 35.1422 15.986 53.799C15.986 72.4557 31.1155 87.5801 49.7787 87.5801C68.4419 87.5801 83.5714 72.4557 83.5714 53.799C83.5755 49.7458 82.8481 45.7252 81.4243 41.9301C81.2509 42.1258 81.1164 42.1796 81.0357 42.0465Z" fill="#44323A"/>
<path id="Vector_8" d="M45.7438 39.988C45.7438 39.988 39.9164 36.281 34.3539 39.988C32.407 41.2855 31.4336 43.1344 30.9907 44.9897C30.2032 48.2886 31.0668 51.7665 33.1727 54.4256L45.7566 70.3156C46.1881 70.8691 46.7667 71.2901 47.4264 71.5304C48.086 71.7707 48.7999 71.8206 49.4866 71.6743C49.5138 71.6682 49.5412 71.6619 49.5688 71.6553C50.0661 71.5329 50.533 71.3101 50.9409 71.0006C51.3487 70.691 51.6889 70.3012 51.9403 69.8553L60.6919 54.4919C62.311 51.6941 62.9746 48.4453 62.5825 45.2369C62.1721 42.0774 60.6543 38.7468 56.339 37.6049C56.339 37.6049 51.3063 35.4866 45.7438 39.988Z" fill="#6C63FF"/>
<path id="Vector_9" opacity="0.1" d="M45.7438 39.988C45.7438 39.988 39.9164 36.281 34.3539 39.988C32.407 41.2855 31.4336 43.1344 30.9907 44.9897C30.2032 48.2886 31.0668 51.7665 33.1727 54.4256L45.7566 70.3156C46.1881 70.8691 46.7667 71.2901 47.4264 71.5304C48.086 71.7707 48.7999 71.8206 49.4866 71.6743C49.5138 71.6682 49.5412 71.6619 49.5688 71.6553C50.0661 71.5329 50.533 71.3101 50.9409 71.0006C51.3487 70.691 51.6889 70.3012 51.9403 69.8553L60.6919 54.4919C62.311 51.6941 62.9746 48.4453 62.5825 45.2369C62.1721 42.0774 60.6543 38.7468 56.339 37.6049C56.339 37.6049 51.3063 35.4866 45.7438 39.988Z" fill="#D79494"/>
<path id="Vector_10" d="M45.8031 40.8827C45.8031 40.8827 40.3366 37.4052 35.1186 40.8827C33.2923 42.0998 32.3792 43.8342 31.9637 45.5746C31.2249 48.6692 32.0351 51.9317 34.0105 54.4261L45.8151 69.332C46.2199 69.8513 46.7627 70.2462 47.3815 70.4716C48.0002 70.697 48.67 70.7438 49.3141 70.6066C49.3396 70.6009 49.3654 70.5949 49.3913 70.5887C49.8577 70.474 50.2957 70.265 50.6783 69.9746C51.0609 69.6842 51.38 69.3185 51.6158 68.9002L59.8254 54.4883C61.3442 51.8638 61.9668 48.8162 61.599 45.8065C61.214 42.8426 59.7902 39.7183 55.7421 38.6472C55.7421 38.6472 51.0211 36.66 45.8031 40.8827Z" fill="#F3F0A1"/>
<path id="Vector_11" opacity="0.1" d="M46.0158 46.8454C46.0158 46.8454 43.3562 45.1535 40.8175 46.8454C40.0292 47.3787 39.4789 48.1971 39.2826 49.1282C39.1126 49.8746 39.1139 50.6498 39.2864 51.3956C39.4589 52.1414 39.798 52.8385 40.2784 53.4347C40.2784 53.4347 47.0874 61.4494 47.724 61.3069C47.7365 61.3041 47.749 61.3012 47.7616 61.2982C48.2203 61.1881 52.8381 53.4649 52.8381 53.4649C53.577 52.188 53.8799 50.7053 53.7009 49.241C53.5136 47.799 52.8209 46.2789 50.8514 45.7578C50.8514 45.7578 48.5545 44.791 46.0158 46.8454Z" fill="#FD0000"/>
<path id="Vector_12" opacity="0.1" d="M29.4037 59.5119L30.1492 60.7539L31.6399 63.2378L32.1369 64.9765L31.143 66.4669L32.3853 69.4476L32.8823 71.1863L31.8885 72.1798L33.8762 73.6702" fill="black"/>
<path id="Vector_13" opacity="0.1" d="M65.9297 48.5827V50.5699L64.6872 53.799L63.9418 55.5377L65.1842 57.7732L65.6812 59.2636L67.669 60.0087L68.4144 61.2507V64.2313" fill="black"/>
<path id="Vector_14" opacity="0.1" d="M78.6019 50.5699L76.6141 51.8118C76.6141 51.8118 75.6202 52.3086 75.6202 52.557V54.5441" fill="black"/>
<path id="Vector_15" opacity="0.1" d="M69.6568 43.6149L70.1537 46.0988L69.6568 47.8377" fill="black"/>
<path id="Vector_16" opacity="0.1" d="M71.6446 65.9702L70.1537 68.2055L68.4144 69.6959V70.6894L69.4083 71.9314V73.4218L68.6628 74.9122" fill="black"/>
<path id="Vector_17" opacity="0.1" d="M57.4814 23.7437H54.9967L53.0088 25.4824L49.7786 27.2211L48.2878 28.4632V28.96L45.0576 30.6987L44.0637 32.4374" fill="black"/>
<path id="Vector_18" opacity="0.1" d="M30.6461 27.9664L28.4098 32.4374L27.6643 34.1761L25.925 36.4116C25.925 36.4116 24.6826 38.6472 24.4342 38.8955C24.1857 39.1439 22.4464 39.6407 22.4464 39.6407L24.9311 42.1246" fill="black"/>
<path id="Vector_19" opacity="0.1" d="M20.7071 45.1053L20.2101 48.3343L20.7071 50.3215V53.7989L19.2162 60.2571L20.7071 61.9958L22.4464 64.2313" fill="black"/>
<path id="Vector_20" opacity="0.1" d="M24.4341 46.5956L25.925 47.3408L26.9188 50.5699L28.9067 50.0731L29.9006 51.8119" fill="black"/>
<path id="Vector_21" opacity="0.1" d="M51.7665 78.8864L55.7421 78.3896L57.4814 76.6509H59.9662" fill="black"/>
<path id="Vector_22" opacity="0.1" d="M27.6643 73.6701L29.1551 75.4088L31.6399 76.154L33.3793 76.6509L33.8762 79.3831" fill="black"/>
<path id="Vector_23" opacity="0.1" d="M56.9844 65.225L58.7239 63.983L59.4693 61.9958L60.9602 61.7474L61.7055 59.2635" fill="black"/>
<g id="hair">
<path id="Vector_24" d="M12.3606 2.81197H16.521C17.8345 2.81197 19.0943 3.33359 20.0231 4.26208C20.9519 5.19057 21.4737 6.44988 21.4737 7.76297V16.8729H7.40793V7.76298C7.40793 7.1128 7.53603 6.46899 7.78493 5.86831C8.03383 5.26762 8.39864 4.72183 8.85854 4.26208C9.31844 3.80234 9.86443 3.43765 10.4653 3.18884C11.0662 2.94003 11.7102 2.81197 12.3606 2.81197V2.81197Z" fill="#2F2E41"/>
</g>
<path id="Vector_25" d="M16.6319 80.9381C16.6319 80.9381 16.1896 83.7384 15.4524 84.1806C14.7153 84.6227 19.2858 85.6544 19.2858 85.6544L20.023 81.2329L16.6319 80.9381Z" fill="#FBBEBE"/>
<path id="Vector_26" d="M22.0871 48.9555L23.7089 50.8715L22.9717 57.5038L22.3819 70.6211C22.3819 70.6211 23.5614 81.9698 22.3819 82.2645C21.2025 82.5593 15.8948 82.4119 16.0422 81.675C16.1896 80.9381 16.3371 80.3485 16.6319 79.3168C16.9268 78.2851 16.3371 74.6005 16.3371 74.6005L17.0743 70.4737L14.4204 52.6401L22.0871 48.9555Z" fill="#2F2E41"/>
<path id="Vector_27" d="M16.7794 83.7384C16.7794 83.7384 15.1576 83.4436 15.0101 83.7384C14.8627 84.0332 12.0614 87.1283 11.6191 87.1283C11.1768 87.1283 7.93322 90.076 11.3242 90.2233C14.7153 90.3707 20.3178 87.7178 20.3178 87.7178C20.3178 87.7178 19.4933 83.9674 19.537 84.1477C19.5807 84.3279 16.7794 84.4753 16.7794 83.7384Z" fill="#2F2E41"/>
<path id="Vector_28" d="M15.0101 76.9587C15.0101 76.9587 19.1383 81.5276 19.2858 81.9698C19.4332 82.4119 21.6448 81.9698 21.6448 81.9698L22.5294 79.0221L21.7922 77.9904L17.664 74.6005L15.0101 76.9587Z" fill="#FBBEBE"/>
<path id="Vector_29" d="M20.9076 80.3485L18.7697 82.36C18.7697 82.36 21.4973 86.5387 21.4973 86.9809C21.4973 87.423 21.6447 91.1076 23.1191 90.5181C24.5935 89.9286 24.7409 84.0331 24.7409 84.0331C24.7409 84.0331 24.5935 77.9903 23.7089 77.5482C22.8242 77.106 20.8854 77.2457 20.8854 77.2457C20.8854 77.2457 22.0871 80.2011 20.9076 80.3485Z" fill="#2F2E41"/>
<path id="Vector_30" d="M8.67041 35.8382C8.67041 35.8382 7.93323 38.1964 7.78579 38.7859C7.63835 39.3755 6.75374 40.9967 6.75374 43.5023C6.75374 46.0078 7.04861 48.9555 6.75374 49.2503C6.45887 49.5451 1.74092 66.0522 3.80502 67.8208C5.86912 69.5894 12.6512 75.4848 13.0935 76.2217C13.5358 76.9587 13.6832 78.7273 14.5678 78.4325C15.4525 78.1377 18.8435 75.19 18.9909 74.6005C19.1384 74.011 17.0742 72.9793 17.0742 72.9793C17.0742 72.9793 12.946 66.9365 11.914 67.0839C10.8819 67.2313 11.0294 66.3469 11.1768 65.9048C11.3243 65.4626 11.6191 65.1679 11.1768 65.1679C10.7345 65.1679 11.0294 63.9888 11.1768 63.3992C11.3243 62.8097 14.7153 54.8509 14.7153 54.8509L23.7089 50.8715C23.7089 50.8715 23.2666 40.1124 20.023 37.1647L19.2858 35.3961C19.2858 35.3961 11.0294 34.8065 8.67041 35.8382Z" fill="#2F2E41"/>
<path id="Vector_31" d="M12.3563 12.5514C12.3563 12.5514 13.0935 17.7099 11.3242 18.0046C9.55502 18.2994 8.08066 18.152 8.08066 18.2994C8.08066 18.4468 12.5037 23.0157 12.5037 23.0157L16.6319 22.721L20.3178 18.7416C20.3178 18.7416 16.9268 18.152 16.9268 16.0886C16.9268 14.0252 16.7794 12.5514 16.7794 12.5514H12.3563Z" fill="#FBBEBE"/>
<path id="Vector_32" opacity="0.1" d="M12.3563 12.5514C12.3563 12.5514 13.0935 17.7099 11.3242 18.0046C9.55502 18.2994 8.08066 18.152 8.08066 18.2994C8.08066 18.4468 12.5037 23.0157 12.5037 23.0157L16.6319 22.721L20.3178 18.7416C20.3178 18.7416 16.9268 18.152 16.9268 16.0886C16.9268 14.0252 16.7794 12.5514 16.7794 12.5514H12.3563Z" fill="black"/>
<path id="Vector_33" d="M14.6416 14.6885C17.1658 14.6885 19.2121 12.6429 19.2121 10.1195C19.2121 7.5962 17.1658 5.55061 14.6416 5.55061C12.1173 5.55061 10.071 7.5962 10.071 10.1195C10.071 12.6429 12.1173 14.6885 14.6416 14.6885Z" fill="#FBBEBE"/>
<path id="Vector_34" d="M10.5871 17.5625C10.5871 17.5625 4.83707 18.2994 4.39476 20.2154C3.95245 22.1314 7.34348 34.0696 7.78579 35.1013C8.2281 36.133 8.08066 36.87 8.08066 36.87C8.74778 36.3712 9.51401 36.0211 10.3278 35.8431C11.1416 35.6652 11.9841 35.6635 12.7986 35.8383C15.5999 36.4278 19.5807 36.133 19.5807 36.133C19.5807 36.133 20.9076 30.6798 21.2025 30.0902C21.4973 29.5007 22.6768 26.2582 22.6768 25.3739C22.6768 24.4896 24.446 20.805 24.446 20.805C24.446 20.805 23.5614 18.152 20.3178 18.2994C20.3178 18.2994 18.903 17.6664 18.5047 18.1303C18.1063 18.5942 15.8948 20.6576 13.0935 19.7733C10.2922 18.889 10.5871 17.5625 10.5871 17.5625Z" fill="#FF6584"/>
<path id="Vector_35" d="M6.01654 20.068H4.39475L3.51013 31.7114C3.51013 31.7114 6.75372 32.5958 7.19603 32.0062C7.63834 31.4167 6.01654 20.068 6.01654 20.068Z" fill="#FF6584"/>
<path id="Vector_36" d="M21.6447 20.068L24.446 20.8049C24.446 20.8049 26.5101 28.3216 26.6576 28.469C26.805 28.6164 26.9524 29.5007 26.9524 29.5007C26.9524 29.5007 26.9524 29.6481 27.2473 30.0902C27.5422 30.5324 27.9845 30.2376 27.6896 30.8271C27.3947 31.4167 26.9524 31.1219 27.2473 31.7114C27.5422 32.301 27.3947 33.9222 27.3947 33.9222C27.3947 33.9222 26.6576 31.1219 24.0037 31.8588L22.2345 23.9L21.6447 20.068Z" fill="#FF6584"/>
<path id="Vector_37" d="M18.21 9.00833H11.1083L9.50049 5.31427H19.4158L18.21 9.00833Z" fill="#2F2E41"/>
<path id="Vector_38" d="M10.1766 11.7113C10.3663 11.6564 10.4013 11.2019 10.2547 10.6962C10.1081 10.1905 9.83548 9.82515 9.64578 9.8801C9.45608 9.93505 9.42114 10.3895 9.56772 10.8952C9.7143 11.4009 9.98691 11.7663 10.1766 11.7113Z" fill="#FFB9B9"/>
<path id="Vector_39" d="M19.7845 10.8952C19.9311 10.3895 19.8961 9.93506 19.7065 9.88011C19.5168 9.82516 19.2441 10.1905 19.0976 10.6962C18.951 11.2019 18.9859 11.6564 19.1756 11.7113C19.3653 11.7663 19.6379 11.4009 19.7845 10.8952Z" fill="#FFB9B9"/>
<path id="Vector_40" d="M18.5769 30.373C20.0426 30.373 21.2308 29.1852 21.2308 27.72C21.2308 26.2549 20.0426 25.0671 18.5769 25.0671C17.1113 25.0671 15.9231 26.2549 15.9231 27.72C15.9231 29.1852 17.1113 30.373 18.5769 30.373Z" fill="#3F3D56"/>
<path id="Vector_41" opacity="0.1" d="M18.5769 30.373C20.0426 30.373 21.2308 29.1852 21.2308 27.72C21.2308 26.2549 20.0426 25.0671 18.5769 25.0671C17.1113 25.0671 15.9231 26.2549 15.9231 27.72C15.9231 29.1852 17.1113 30.373 18.5769 30.373Z" fill="black"/>
<path id="Vector_42" d="M18.5769 30.1099C19.8972 30.1099 20.9676 29.0399 20.9676 27.72C20.9676 26.4002 19.8972 25.3302 18.5769 25.3302C17.2566 25.3302 16.1862 26.4002 16.1862 27.72C16.1862 29.0399 17.2566 30.1099 18.5769 30.1099Z" fill="#3F3D56"/>
<path id="Vector_43" opacity="0.1" d="M18.4715 26.3691C18.4715 26.3691 17.8624 25.9816 17.281 26.3691C17.1004 26.4912 16.9744 26.6787 16.9294 26.8919C16.8905 27.0628 16.8908 27.2404 16.9303 27.4112C16.9698 27.582 17.0475 27.7417 17.1575 27.8782L18.4728 29.5391C18.5179 29.597 18.5784 29.641 18.6474 29.6661C18.7163 29.6912 18.7909 29.6964 18.8627 29.6811L18.8713 29.6791C18.9233 29.6663 18.9721 29.643 19.0147 29.6107C19.0574 29.5783 19.0929 29.5376 19.1192 29.491L20.034 27.8851C20.2032 27.5927 20.2726 27.2531 20.2316 26.9177C20.2222 26.7326 20.1537 26.5552 20.0363 26.4117C19.9189 26.2682 19.7587 26.166 19.579 26.12C19.579 26.12 19.0529 25.8986 18.4715 26.3691Z" fill="black"/>
<path id="Vector_44" d="M18.4777 26.4626C18.4777 26.4626 17.9063 26.0991 17.3609 26.4626C17.1915 26.5772 17.0733 26.753 17.0311 26.953C16.9946 27.1134 16.9949 27.2799 17.0319 27.4402C17.069 27.6004 17.1419 27.7502 17.2451 27.8782L18.4789 29.4363C18.5213 29.4906 18.578 29.5319 18.6427 29.5554C18.7073 29.579 18.7774 29.5839 18.8447 29.5695L18.8527 29.5677C18.9015 29.5557 18.9473 29.5338 18.9873 29.5035C19.0273 29.4731 19.0606 29.4349 19.0853 29.3912L19.9434 27.8848C20.1021 27.6104 20.1672 27.2919 20.1288 26.9773C20.1199 26.8036 20.0557 26.6372 19.9456 26.5026C19.8355 26.368 19.6851 26.2721 19.5166 26.2289C19.5166 26.2289 19.0231 26.0212 18.4777 26.4626Z" fill="#6C63FF"/>
<path id="Vector_45" opacity="0.1" d="M18.5 27.0859C18.418 27.0362 18.3241 27.01 18.2283 27.01C18.1325 27.01 18.0385 27.0362 17.9566 27.0859C17.8742 27.1416 17.8167 27.2271 17.7962 27.3245C17.7784 27.4025 17.7785 27.4835 17.7965 27.5615C17.8146 27.6394 17.85 27.7123 17.9002 27.7746C17.9002 27.7746 18.612 28.6123 18.6785 28.5975L18.6824 28.5965C18.7304 28.585 19.213 27.7778 19.213 27.7778C19.2903 27.6443 19.3219 27.4893 19.3032 27.3363C19.2989 27.2517 19.2677 27.1708 19.2141 27.1053C19.1605 27.0398 19.0874 26.9932 19.0054 26.9722C18.9186 26.9449 18.8261 26.9411 18.7374 26.9611C18.6486 26.981 18.5667 27.0241 18.5 27.0859V27.0859Z" fill="black"/>
<path id="Vector_46" d="M16.2179 31.8468C17.6836 31.8468 18.8718 30.6591 18.8718 29.1939C18.8718 27.7287 17.6836 26.541 16.2179 26.541C14.7523 26.541 13.5641 27.7287 13.5641 29.1939C13.5641 30.6591 14.7523 31.8468 16.2179 31.8468Z" fill="#3F3D56"/>
<path id="Vector_47" opacity="0.1" d="M16.2179 31.8468C17.6836 31.8468 18.8718 30.6591 18.8718 29.1939C18.8718 27.7287 17.6836 26.541 16.2179 26.541C14.7523 26.541 13.5641 27.7287 13.5641 29.1939C13.5641 30.6591 14.7523 31.8468 16.2179 31.8468Z" fill="black"/>
<path id="Vector_48" d="M16.218 31.5837C17.5383 31.5837 18.6086 30.5138 18.6086 29.1939C18.6086 27.874 17.5383 26.8041 16.218 26.8041C14.8976 26.8041 13.8273 27.874 13.8273 29.1939C13.8273 30.5138 14.8976 31.5837 16.218 31.5837Z" fill="#3F3D56"/>
<path id="Vector_49" opacity="0.1" d="M16.1125 27.843C16.1125 27.843 15.5034 27.4555 14.922 27.843C14.7415 27.9651 14.6154 28.1525 14.5704 28.3658C14.5315 28.5367 14.5318 28.7142 14.5713 28.8851C14.6108 29.0559 14.6885 29.2155 14.7985 29.3521L16.1139 31.013C16.159 31.0708 16.2195 31.1148 16.2884 31.1399C16.3573 31.1651 16.432 31.1703 16.5037 31.155L16.5123 31.153C16.5643 31.1402 16.6131 31.1169 16.6558 31.0846C16.6984 31.0522 16.7339 31.0115 16.7602 30.9648L17.675 29.359C17.8442 29.0665 17.9136 28.727 17.8726 28.3916C17.8632 28.2064 17.7948 28.0291 17.6774 27.8856C17.5599 27.7421 17.3997 27.6398 17.22 27.5939C17.22 27.5939 16.6939 27.3724 16.1125 27.843Z" fill="black"/>
<path id="Vector_50" d="M16.1187 27.9365C16.1187 27.9365 15.5474 27.573 15.0019 27.9365C14.8326 28.051 14.7143 28.2269 14.6722 28.4269C14.6357 28.5872 14.6359 28.7538 14.673 28.914C14.71 29.0743 14.7829 29.224 14.8861 29.3521L16.12 30.9101C16.1623 30.9644 16.219 31.0057 16.2837 31.0293C16.3484 31.0528 16.4184 31.0577 16.4857 31.0434L16.4938 31.0415C16.5426 31.0295 16.5883 31.0077 16.6283 30.9773C16.6683 30.947 16.7017 30.9087 16.7263 30.865L17.5844 29.3586C17.7432 29.0843 17.8083 28.7657 17.7698 28.4511C17.761 28.2774 17.6968 28.1111 17.5867 27.9765C17.4765 27.8418 17.3262 27.7459 17.1576 27.7028C17.1576 27.7028 16.6642 27.4951 16.1187 27.9365Z" fill="#6C63FF"/>
<path id="Vector_51" opacity="0.1" d="M16.141 28.5597C16.059 28.5101 15.9651 28.4839 15.8693 28.4839C15.7735 28.4839 15.6795 28.5101 15.5976 28.5597C15.5152 28.6154 15.4577 28.701 15.4372 28.7983C15.4194 28.8763 15.4195 28.9574 15.4376 29.0353C15.4556 29.1133 15.491 29.1861 15.5413 29.2484C15.5413 29.2484 16.253 30.0862 16.3195 30.0713L16.3234 30.0704C16.3714 30.0589 16.8541 29.2516 16.8541 29.2516C16.9313 29.1181 16.963 28.9632 16.9443 28.8101C16.94 28.7256 16.9087 28.6447 16.8551 28.5792C16.8016 28.5137 16.7284 28.467 16.6464 28.446C16.5596 28.4188 16.4672 28.415 16.3784 28.4349C16.2896 28.4549 16.2077 28.4979 16.141 28.5597V28.5597Z" fill="black"/>
<path id="Vector_52" d="M14.1943 22.5613C14.1296 22.4547 13.9039 22.4575 13.9039 22.4575C13.6983 22.7628 13.2042 22.4385 13.2042 22.4385C12.8372 22.6026 12.6133 22.0796 12.6133 22.0796C12.1195 22.0058 12.1958 21.4873 12.1958 21.4873C11.9501 21.438 12.019 20.994 12.019 20.994C12.019 20.994 12.1553 20.8822 12.0882 20.8004C12.0482 20.7048 12.0339 20.6003 12.0467 20.4974C11.3149 20.2748 10.5293 20.3061 9.81763 20.5864C9.10596 20.8668 8.51009 21.3795 8.12692 22.0413C7.74375 22.7031 7.59583 23.475 7.7072 24.2315C7.81858 24.988 8.1827 25.6846 8.74036 26.208C9.29801 26.7314 10.0164 27.0508 10.7787 27.1142C11.541 27.1777 12.3023 26.9815 12.9389 26.5575C13.5754 26.1335 14.0498 25.5067 14.2848 24.7791C14.5198 24.0514 14.5017 23.2657 14.2333 22.5496C14.2159 22.5693 14.2024 22.5747 14.1943 22.5613Z" fill="#3F3D56"/>
<path id="Vector_53" opacity="0.1" d="M14.1943 22.5613C14.1296 22.4547 13.9039 22.4575 13.9039 22.4575C13.6983 22.7628 13.2042 22.4385 13.2042 22.4385C12.8372 22.6026 12.6133 22.0796 12.6133 22.0796C12.1195 22.0058 12.1958 21.4873 12.1958 21.4873C11.9501 21.438 12.019 20.994 12.019 20.994C12.019 20.994 12.1553 20.8822 12.0882 20.8004C12.0482 20.7048 12.0339 20.6003 12.0467 20.4974C11.3149 20.2748 10.5293 20.3061 9.81763 20.5864C9.10596 20.8668 8.51009 21.3795 8.12692 22.0413C7.74375 22.7031 7.59583 23.475 7.7072 24.2315C7.81858 24.988 8.1827 25.6846 8.74036 26.208C9.29801 26.7314 10.0164 27.0508 10.7787 27.1142C11.541 27.1777 12.3023 26.9815 12.9389 26.5575C13.5754 26.1335 14.0498 25.5067 14.2848 24.7791C14.5198 24.0514 14.5017 23.2657 14.2333 22.5496C14.2159 22.5693 14.2024 22.5747 14.1943 22.5613Z" fill="black"/>
<path id="Vector_54" d="M13.9933 22.5479C13.9318 22.4466 13.7171 22.4492 13.7171 22.4492C13.5216 22.7396 13.0517 22.4311 13.0517 22.4311C12.7027 22.5872 12.4897 22.0898 12.4897 22.0898C12.0201 22.0196 12.0926 21.5265 12.0926 21.5265C11.859 21.4796 11.9245 21.0573 11.9245 21.0573C11.9245 21.0573 12.0542 20.951 11.9904 20.8733C11.9523 20.7823 11.9387 20.6829 11.9508 20.5851C11.2549 20.3733 10.5077 20.4032 9.8309 20.6697C9.15407 20.9363 8.58737 21.424 8.22295 22.0534C7.85854 22.6828 7.71786 23.4169 7.82378 24.1364C7.92971 24.8559 8.276 25.5184 8.80636 26.0161C9.33672 26.5139 10.0199 26.8177 10.7449 26.878C11.4699 26.9384 12.1939 26.7517 12.7993 26.3485C13.4048 25.9453 13.8559 25.3492 14.0794 24.6572C14.3029 23.9651 14.2856 23.2178 14.0304 22.5368C14.0138 22.5555 14.001 22.5606 13.9933 22.5479Z" fill="#3F3D56"/>
<path id="Vector_55" d="M10.6252 22.3515C10.6252 22.3515 10.0691 21.9977 9.53819 22.3515C9.37335 22.463 9.25827 22.6341 9.21722 22.8288C9.18168 22.9849 9.18195 23.147 9.21802 23.303C9.25408 23.4589 9.325 23.6047 9.42546 23.7294L10.6264 25.2458C10.6676 25.2987 10.7228 25.3388 10.7858 25.3618C10.8487 25.3847 10.9169 25.3895 10.9824 25.3755L10.9902 25.3737C11.0377 25.362 11.0823 25.3407 11.1212 25.3112C11.1601 25.2817 11.1926 25.2445 11.2166 25.2019L12.0518 23.7357C12.2063 23.4687 12.2696 23.1586 12.2322 22.8524C12.2236 22.6834 12.1611 22.5215 12.0539 22.3904C11.9467 22.2594 11.8004 22.166 11.6364 22.1241C11.6364 22.1241 11.156 21.9219 10.6252 22.3515Z" fill="#6C63FF"/>
<path id="Vector_56" opacity="0.1" d="M10.6252 22.3515C10.6252 22.3515 10.0691 21.9977 9.53819 22.3515C9.37335 22.463 9.25827 22.6341 9.21722 22.8288C9.18168 22.9849 9.18195 23.147 9.21802 23.303C9.25408 23.4589 9.325 23.6047 9.42546 23.7294L10.6264 25.2458C10.6676 25.2987 10.7228 25.3388 10.7858 25.3618C10.8487 25.3847 10.9169 25.3895 10.9824 25.3755L10.9902 25.3737C11.0377 25.362 11.0823 25.3407 11.1212 25.3112C11.1601 25.2817 11.1926 25.2445 11.2166 25.2019L12.0518 23.7357C12.2063 23.4687 12.2696 23.1586 12.2322 22.8524C12.2236 22.6834 12.1611 22.5215 12.0539 22.3904C11.9467 22.2594 11.8004 22.166 11.6364 22.1241C11.6364 22.1241 11.156 21.9219 10.6252 22.3515Z" fill="black"/>
<path id="Vector_57" d="M10.6309 22.4369C10.6309 22.4369 10.1092 22.105 9.61119 22.4369C9.45656 22.5415 9.34861 22.702 9.3101 22.8846C9.27676 23.031 9.27701 23.1831 9.31084 23.3294C9.34467 23.4757 9.4112 23.6125 9.50544 23.7294L10.632 25.1519C10.6706 25.2015 10.7224 25.2392 10.7815 25.2607C10.8406 25.2822 10.9045 25.2867 10.9659 25.2736L10.9733 25.2719C11.0178 25.2609 11.0596 25.241 11.0961 25.2133C11.1327 25.1855 11.1631 25.1507 11.1856 25.1107L11.9691 23.7353C12.1141 23.4848 12.1735 23.194 12.1384 22.9068C12.1303 22.7482 12.0717 22.5963 11.9711 22.4734C11.8706 22.3504 11.7333 22.2629 11.5794 22.2235C11.5794 22.2235 11.1289 22.0339 10.6309 22.4369Z" fill="#6C63FF"/>
<path id="Vector_58" opacity="0.1" d="M10.6512 23.0059C10.5764 22.9606 10.4906 22.9367 10.4031 22.9367C10.3156 22.9367 10.2299 22.9606 10.1551 23.0059C10.0798 23.0568 10.0273 23.1349 10.0086 23.2238C9.99234 23.295 9.99247 23.369 10.0089 23.4402C10.0254 23.5113 10.0578 23.5779 10.1036 23.6348C10.1036 23.6348 10.7534 24.3997 10.8142 24.3861L10.8178 24.3852C10.9922 24.1446 11.1539 23.8951 11.3022 23.6377C11.3728 23.5158 11.4017 23.3743 11.3846 23.2345C11.3807 23.1574 11.3521 23.0835 11.3032 23.0237C11.2543 22.9639 11.1875 22.9213 11.1126 22.9021C11.0334 22.8773 10.949 22.8738 10.8679 22.892C10.7869 22.9102 10.7121 22.9495 10.6512 23.0059Z" fill="black"/>
<path id="Vector_59" opacity="0.1" d="M9.06583 24.2148L9.13689 24.3333L9.27917 24.5703L9.32664 24.7362L9.23169 24.8785L9.35038 25.1629L9.3977 25.3289L9.3029 25.4238L9.49265 25.566" fill="black"/>
<path id="Vector_60" opacity="0.1" d="M12.5517 23.1718V23.3614L12.4331 23.6696L12.3619 23.8354L12.4804 24.0488L12.5279 24.1911L12.7177 24.2621L12.7887 24.3808V24.6652" fill="black"/>
<path id="Vector_61" opacity="0.1" d="M13.761 23.3614L13.5713 23.4799C13.5713 23.4799 13.4765 23.5273 13.4765 23.551V23.7406" fill="black"/>
<path id="Vector_62" opacity="0.1" d="M12.9073 22.6976L12.9547 22.9346L12.9073 23.1006" fill="black"/>
<path id="Vector_63" opacity="0.1" d="M13.097 24.8311L12.9547 25.0444L12.7887 25.1866V25.2816L12.8837 25.4001V25.5423L12.8125 25.6845" fill="black"/>
<path id="Vector_64" opacity="0.1" d="M11.7453 20.8012H11.5082L11.3185 20.9672L11.0102 21.1331L10.8679 21.2516V21.2991L10.5596 21.4649L10.4648 21.6308" fill="black"/>
<path id="Vector_65" opacity="0.1" d="M9.18433 21.2042L8.97091 21.6309L8.89977 21.7968L8.73378 22.0102C8.73378 22.0102 8.61521 22.2235 8.5915 22.2472C8.5309 22.2774 8.46733 22.3013 8.40179 22.3183L8.63893 22.5554" fill="black"/>
<path id="Vector_66" opacity="0.1" d="M8.23578 22.8398L8.18831 23.148L8.23578 23.3377V23.6696L8.09351 24.2858L8.23578 24.4518L8.40179 24.6652" fill="black"/>
<path id="Vector_67" opacity="0.1" d="M8.59152 22.9821L8.7338 23.0532L8.8286 23.3614L9.01835 23.314L9.11315 23.4799" fill="black"/>
<path id="Vector_68" opacity="0.1" d="M11.2 26.0637L11.5793 26.0164L11.7453 25.8505H11.9825" fill="black"/>
<path id="Vector_69" opacity="0.1" d="M8.89984 25.566L9.04212 25.732L9.27919 25.803L9.44521 25.8505L9.49268 26.1112" fill="black"/>
<path id="Vector_70" opacity="0.1" d="M11.698 24.7599L11.864 24.6414L11.9351 24.4518L12.0774 24.428L12.1486 24.191" fill="black"/>
<path id="Vector_71" d="M3.95244 30.5324L3.51013 31.7115C3.51013 31.7115 3.21526 35.5435 4.98449 35.3961C6.75372 35.2487 7.78577 33.0379 7.78577 33.0379C7.78577 33.0379 6.75372 30.2376 5.57423 30.5324C4.39474 30.8272 3.95244 30.5324 3.95244 30.5324Z" fill="#FF6584"/>
<path id="Vector_72" d="M5.42681 31.2693C5.42681 31.2693 4.54219 33.9222 5.57425 33.9222C6.6063 33.9222 8.52296 32.301 8.6704 30.9745C8.81784 29.6481 11.4717 24.637 9.55502 25.0791C7.63835 25.5213 6.75373 29.2059 6.75373 29.2059L5.42681 31.2693Z" fill="#FBBEBE"/>
<path id="Vector_73" d="M26.5101 31.4167L27.4312 32.9554C27.4312 32.9554 27.8371 35.8382 25.773 35.8382C23.7089 35.8382 20.7601 33.0379 20.7601 33.0379C20.7601 33.0379 19.2858 32.4484 18.4012 32.5958C17.5166 32.7432 12.6512 32.5958 14.7153 30.0902C16.7794 27.5847 20.3178 30.0902 20.3178 30.0902L24.0037 31.8589L25.9204 30.8272L26.5101 31.4167Z" fill="#FBBEBE"/>
<path id="Vector_74" d="M25.2569 29.427L23.7826 31.7852C23.7826 31.7852 27.1736 32.2273 27.4685 32.9642C27.7633 33.7012 26.1415 29.1322 26.1415 29.1322L25.2569 29.427Z" fill="#FF6584"/>
</g>
<defs>
<clipPath id="clip0">
<rect width="92" height="93" fill="white"/>
</clipPath>
</defs>
</svg>
