<svg width="982" height="707" viewBox="0 0 982 707" fill="none" xmlns="http://www.w3.org/2000/svg">
<g id="undraw_Notes_re_pxhw 1">
<g id="leaf1">
<path id="Path 438" d="M485.904 273.959C483.963 274.648 481.878 274.821 479.852 274.461C477.825 274.1 475.924 273.219 474.333 271.902C470.28 268.468 469.009 262.813 467.976 257.575L464.918 242.082L471.32 246.532C475.924 249.732 480.632 253.035 483.82 257.67C487.008 262.305 488.399 268.633 485.838 273.648" fill="#9CECD6"/>
<path id="Path 439" d="M484.916 293.796C485.721 287.869 486.55 281.867 485.984 275.877C485.482 270.557 483.874 265.363 480.601 261.102C478.863 258.845 476.749 256.911 474.353 255.387C473.729 254.989 473.154 255.988 473.776 256.384C477.921 259.029 481.128 262.934 482.933 267.536C484.926 272.655 485.246 278.234 484.903 283.671C484.695 286.959 484.254 290.225 483.811 293.488C483.776 293.635 483.798 293.791 483.872 293.923C483.947 294.055 484.068 294.153 484.211 294.198C484.358 294.238 484.514 294.218 484.645 294.143C484.777 294.067 484.874 293.942 484.915 293.795L484.916 293.796Z" fill="#F2F2F2"/>
</g>
<g id="leaf2">
<path id="Path 442" d="M479.115 284.287C478.283 285.564 477.138 286.604 475.792 287.305C474.446 288.007 472.944 288.347 471.43 288.292C467.538 288.106 464.295 285.365 461.376 282.762L452.739 275.065L458.455 274.789C462.565 274.59 466.782 274.404 470.697 275.685C474.612 276.966 478.222 280.044 478.938 284.134" fill="#9CECD6"/>
<path id="Path 443" d="M487.193 297.202C483.314 290.273 478.814 282.572 470.774 280.111C468.538 279.429 466.194 279.185 463.868 279.391C463.134 279.455 463.318 280.596 464.049 280.532C467.949 280.205 471.841 281.245 475.071 283.475C478.178 285.611 480.598 288.579 482.646 291.727C483.9 293.655 485.024 295.665 486.148 297.673C486.507 298.314 487.557 297.851 487.193 297.202Z" fill="#E6F3F0"/>
</g>
<path id="Vector" d="M397 196H206V297H397V196Z" fill="#CFCEE6" fill-opacity="0.48"/>
<path id="Vector_2" d="M401 298H206V194H401V298ZM209.482 294.514H397.518V197.486H209.482V294.514Z" fill="black"/>
<path id="Vector_3" d="M364 265H243V269H364V265Z" fill="#D4D3E8"/>
<path id="left-arm" d="M369.943 194.811C369.51 194.203 369.217 193.508 369.083 192.774C368.949 192.041 368.978 191.287 369.168 190.566C369.358 189.844 369.705 189.174 370.183 188.6C370.662 188.027 371.26 187.565 371.937 187.248L386.122 143L396 148.113L378.951 189.999C379.412 191.167 379.426 192.464 378.991 193.642C378.556 194.82 377.703 195.798 376.593 196.391C375.482 196.985 374.192 197.151 372.966 196.86C371.741 196.569 370.665 195.84 369.943 194.811V194.811Z" fill="#9F616A"/>
<path id="Vector_4" d="M382.197 149.262C382.065 148.955 381.998 148.622 382 148.286C382.002 147.95 382.073 147.617 382.207 147.312L386.911 136.657C387.375 135.006 388.441 133.616 389.876 132.793C391.31 131.969 392.996 131.778 394.564 132.263C396.132 132.747 397.454 133.866 398.24 135.376C399.025 136.885 399.211 138.661 398.756 140.315L397.183 151.988C397.139 152.321 397.026 152.64 396.854 152.923C396.681 153.206 396.453 153.447 396.184 153.629C395.915 153.811 395.613 153.929 395.297 153.977C394.98 154.024 394.658 153.999 394.352 153.904L383.591 150.544C383.285 150.449 383.002 150.285 382.761 150.063C382.52 149.842 382.328 149.569 382.197 149.262Z" fill="#9CECD6"/>
<path id="Vector_5" d="M422 150L421.211 161.308L394.394 171L394 160.096L422 150Z" fill="#9F616A"/>
<path id="Vector_6" d="M388.206 135.04L396.674 128.861L410.529 125L422.076 127.317L424 145.465L421.691 157.05L391.67 164L388.591 158.594C388.591 158.594 381.664 151.644 387.052 143.921L388.206 135.04Z" fill="#9CECD6"/>
<g id="head">
<path id="Vector_7" d="M385.136 118.658V108.436C385.136 104.111 386.838 99.9639 389.867 96.9059C392.896 93.848 397.005 92.13 401.29 92.13C405.574 92.13 409.683 93.848 412.712 96.9059C415.741 99.9639 417.443 104.111 417.443 108.436V118.658C417.443 119.238 417.214 119.795 416.807 120.206C416.4 120.616 415.849 120.847 415.273 120.848H387.306C386.73 120.847 386.179 120.616 385.772 120.206C385.365 119.795 385.136 119.238 385.136 118.658Z" fill="#2F2E41"/>
<path id="Vector_8" d="M400.64 120.747C407.181 120.747 412.484 115.395 412.484 108.792C412.484 102.19 407.181 96.8375 400.64 96.8375C394.099 96.8375 388.797 102.19 388.797 108.792C388.797 115.395 394.099 120.747 400.64 120.747Z" fill="#9F616A"/>
<path id="Vector_9" d="M388.472 108.746C388.359 108.615 388.275 108.46 388.226 108.292C388.177 108.125 388.165 107.949 388.19 107.776L389.593 97.9149C389.62 97.7142 389.697 97.5237 389.816 97.3606C389.935 97.1976 390.093 97.067 390.275 96.9808C397.436 93.5979 404.697 93.5936 411.858 96.968C412.048 97.0589 412.211 97.198 412.332 97.3717C412.453 97.5454 412.527 97.7478 412.547 97.9591L413.484 107.833C413.5 108.002 413.481 108.172 413.428 108.333C413.374 108.494 413.289 108.642 413.176 108.768C413.063 108.893 412.925 108.994 412.771 109.062C412.618 109.131 412.452 109.166 412.283 109.166H409.908C409.679 109.166 409.455 109.099 409.261 108.975C409.068 108.851 408.913 108.674 408.816 108.464L407.791 106.247C407.725 106.104 407.614 105.986 407.475 105.911C407.337 105.837 407.178 105.81 407.023 105.834C406.868 105.859 406.725 105.934 406.616 106.048C406.507 106.162 406.437 106.308 406.418 106.465L406.215 108.1C406.179 108.394 406.037 108.665 405.817 108.861C405.596 109.057 405.313 109.166 405.019 109.166H389.383C389.21 109.166 389.039 109.129 388.882 109.056C388.725 108.984 388.585 108.878 388.472 108.746V108.746Z" fill="#2F2E41"/>
</g>
<path id="Vector_10" d="M419.999 291L413.223 291L410 265L420 265.001L419.999 291Z" fill="#9F616A"/>
<path id="Vector_11" d="M422 298L401 297.999V297.716C401 295.404 401.861 293.187 403.394 291.553C404.927 289.918 407.006 289 409.174 289H409.174L422 289.001L422 298Z" fill="#2F2E41"/>
<path id="Vector_12" d="M416 236.212L411.37 241L390 226.067L396.834 219L416 236.212Z" fill="#9F616A"/>
<path id="Vector_13" d="M421 239.267L406.777 256L406.584 255.803C405.009 254.193 404.081 251.963 404.005 249.604C403.929 247.244 404.711 244.948 406.179 243.221L406.179 243.22L414.866 233L421 239.267Z" fill="#2F2E41"/>
<g id="Frame 1">
<path id="Vector_14" d="M422.424 161.828L424.576 163.993C435.341 174.822 437.991 189.837 436.698 205.097C436.517 207.359 436.157 209.604 435.621 211.809C431.74 227.428 434.069 277.409 426.306 280.533L424.753 286L409.615 285.437L410.003 280.533C410.003 280.533 406.51 273.114 408.839 268.428C411.168 263.743 416.214 228.99 416.214 228.99L413.497 200.485L393.312 210.638C393.312 210.638 403.793 216.495 403.016 220.4C403.016 220.4 409.227 221.961 407.674 225.866L410.003 230.552L404.569 239.143C404.569 239.143 368.082 217.276 371.188 206.342C374.293 195.409 393.701 187.599 393.701 187.599L395.253 175.885L393.915 169.502L421.072 159L422.424 161.828Z" fill="#2F2E41"/>
</g>
<path id="right-arm" d="M439.825 188.86C439.115 188.693 438.45 188.369 437.877 187.911C437.303 187.454 436.836 186.874 436.506 186.213C436.177 185.551 435.994 184.825 435.971 184.084C435.948 183.343 436.084 182.606 436.371 181.924L418 139.693L428.509 137L443.263 179.359C444.356 179.925 445.207 180.88 445.654 182.042C446.102 183.204 446.115 184.492 445.691 185.663C445.268 186.835 444.436 187.807 443.355 188.396C442.274 188.985 441.018 189.15 439.825 188.86V188.86Z" fill="#9F616A"/>
<path id="Vector_15" d="M418.917 147.797C418.631 147.661 418.375 147.46 418.168 147.21C417.96 146.959 417.807 146.664 417.717 146.344L414.573 135.181C413.891 133.636 413.815 131.866 414.36 130.26C414.905 128.655 416.028 127.344 417.482 126.616C418.936 125.888 420.603 125.802 422.117 126.376C423.631 126.951 424.868 128.139 425.558 129.681L431.637 139.427C431.81 139.705 431.925 140.019 431.974 140.349C432.022 140.679 432.003 141.015 431.918 141.336C431.833 141.658 431.684 141.956 431.481 142.21C431.278 142.464 431.025 142.669 430.74 142.811L420.738 147.781C420.454 147.922 420.144 147.997 419.83 148C419.515 148.003 419.204 147.933 418.917 147.797V147.797Z" fill="#9CECD6"/>
<path id="Our Sweets" d="M235.295 252.633C236.777 252.633 238.178 252.359 239.5 251.812C240.821 251.266 242.012 250.468 243.071 249.42C244.108 248.36 244.9 247.158 245.447 245.814C246.005 244.458 246.284 243.034 246.284 241.542C246.284 240.038 246.011 238.619 245.464 237.286C244.917 235.942 244.119 234.734 243.071 233.663C242.035 232.615 240.85 231.817 239.517 231.271C238.195 230.724 236.788 230.45 235.295 230.45C233.814 230.45 232.419 230.724 231.108 231.271C229.798 231.817 228.613 232.615 227.554 233.663C226.506 234.745 225.708 235.953 225.161 237.286C224.614 238.608 224.341 240.026 224.341 241.542C224.341 243.045 224.614 244.47 225.161 245.814C225.708 247.147 226.506 248.349 227.554 249.42C228.602 250.479 229.775 251.283 231.074 251.83C232.373 252.365 233.78 252.633 235.295 252.633ZM248.694 241.542C248.694 243.307 248.358 244.988 247.686 246.583C247.013 248.167 246.045 249.579 244.78 250.821C243.493 252.075 242.04 253.032 240.422 253.692C238.805 254.342 237.096 254.667 235.295 254.667C233.495 254.667 231.786 254.342 230.168 253.692C228.562 253.032 227.121 252.075 225.845 250.821C224.569 249.557 223.595 248.138 222.922 246.566C222.262 244.982 221.931 243.307 221.931 241.542C221.931 239.753 222.262 238.067 222.922 236.483C223.595 234.888 224.569 233.458 225.845 232.193C227.098 230.951 228.528 230.012 230.134 229.374C231.741 228.736 233.461 228.417 235.295 228.417C237.141 228.417 238.867 228.741 240.474 229.391C242.091 230.029 243.527 230.963 244.78 232.193C246.056 233.458 247.025 234.888 247.686 236.483C248.358 238.067 248.694 239.753 248.694 241.542ZM255.53 238.841V246.412C255.53 248.714 255.854 250.337 256.504 251.283C257.165 252.228 258.276 252.701 259.836 252.701C261.386 252.701 262.497 252.223 263.169 251.266C263.841 250.309 264.177 248.691 264.177 246.412V238.841H266.262V247.489C266.262 249.847 265.721 251.636 264.639 252.855C263.556 254.063 261.967 254.667 259.871 254.667C257.763 254.667 256.162 254.063 255.068 252.855C253.975 251.636 253.428 249.847 253.428 247.489V238.841H255.53ZM273.987 241.883C274.762 240.573 275.519 239.645 276.26 239.098C277.012 238.551 277.883 238.277 278.875 238.277C279.171 238.277 279.467 238.306 279.763 238.363C280.071 238.42 280.373 238.5 280.669 238.602L279.985 240.584C279.757 240.516 279.518 240.459 279.268 240.414C279.028 240.368 278.795 240.345 278.567 240.345C277.302 240.345 276.22 240.938 275.32 242.123C274.431 243.307 273.987 244.783 273.987 246.549V254H271.885V238.841H273.987V241.883ZM291.401 249.796L293.35 248.753C293.714 249.984 294.341 250.941 295.229 251.625C296.13 252.297 297.206 252.633 298.459 252.633C300.043 252.633 301.279 252.166 302.168 251.231C303.057 250.297 303.501 249.004 303.501 247.352C303.501 246.144 303.199 245.142 302.595 244.344C302.003 243.547 300.721 242.624 298.75 241.576C296.232 240.243 294.557 239.069 293.726 238.055C292.894 237.041 292.478 235.822 292.478 234.398C292.478 232.621 293.076 231.174 294.272 230.057C295.48 228.941 297.041 228.382 298.955 228.382C300.208 228.382 301.296 228.65 302.219 229.186C303.153 229.71 303.911 230.501 304.492 231.561L302.732 232.621C302.367 231.903 301.849 231.356 301.177 230.98C300.516 230.604 299.73 230.416 298.818 230.416C297.588 230.416 296.608 230.781 295.879 231.51C295.15 232.228 294.785 233.202 294.785 234.432C294.785 236.187 296.232 237.822 299.126 239.337C299.65 239.61 300.049 239.821 300.322 239.969C302.453 241.143 303.877 242.254 304.595 243.302C305.312 244.339 305.671 245.689 305.671 247.352C305.671 249.597 305.016 251.38 303.706 252.701C302.396 254.011 300.613 254.667 298.357 254.667C296.716 254.667 295.309 254.262 294.136 253.453C292.974 252.633 292.062 251.414 291.401 249.796ZM314.114 254.974L308.064 238.841H310.269L314.216 249.762L318.984 238.038L323.735 249.762L327.7 238.841H329.905L323.838 254.974L319.019 242.909L314.114 254.974ZM343.662 244.686C343.56 243.296 343.098 242.219 342.278 241.456C341.458 240.693 340.347 240.311 338.945 240.311C337.669 240.311 336.598 240.71 335.732 241.507C334.878 242.305 334.382 243.364 334.246 244.686H343.662ZM346.157 246.48H334.109C334.166 248.44 334.656 249.978 335.579 251.095C336.501 252.211 337.738 252.77 339.287 252.77C340.404 252.77 341.383 252.468 342.227 251.864C343.07 251.26 343.77 250.348 344.329 249.129L346.26 250.189C345.485 251.727 344.534 252.861 343.406 253.59C342.289 254.308 340.916 254.667 339.287 254.667C337.065 254.667 335.265 253.926 333.887 252.445C332.52 250.952 331.836 248.998 331.836 246.583C331.836 244.099 332.514 242.094 333.87 240.567C335.237 239.041 337.02 238.277 339.219 238.277C341.315 238.277 342.996 238.984 344.26 240.396C345.525 241.798 346.157 243.672 346.157 246.019V246.48ZM361.06 244.686C360.957 243.296 360.496 242.219 359.675 241.456C358.855 240.693 357.744 240.311 356.343 240.311C355.067 240.311 353.996 240.71 353.13 241.507C352.275 242.305 351.78 243.364 351.643 244.686H361.06ZM363.555 246.48H351.506C351.563 248.44 352.053 249.978 352.976 251.095C353.899 252.211 355.135 252.77 356.685 252.77C357.801 252.77 358.781 252.468 359.624 251.864C360.467 251.26 361.168 250.348 361.726 249.129L363.657 250.189C362.882 251.727 361.931 252.861 360.803 253.59C359.687 254.308 358.314 254.667 356.685 254.667C354.463 254.667 352.663 253.926 351.284 252.445C349.917 250.952 349.233 248.998 349.233 246.583C349.233 244.099 349.911 242.094 351.267 240.567C352.634 239.041 354.417 238.277 356.616 238.277C358.713 238.277 360.393 238.984 361.658 240.396C362.922 241.798 363.555 243.672 363.555 246.019V246.48ZM368.374 240.636H365.588V238.841H368.374V232.621H370.442V238.841H373.484V240.636H370.442V254H368.374V240.636ZM374.885 251.3L376.885 250.155C377.215 250.998 377.694 251.636 378.32 252.069C378.947 252.49 379.716 252.701 380.627 252.701C381.516 252.701 382.222 252.479 382.747 252.035C383.271 251.579 383.533 250.975 383.533 250.223C383.533 249.061 382.502 248.076 380.439 247.267C380.223 247.187 380.052 247.118 379.927 247.062C378.332 246.435 377.215 245.791 376.577 245.13C375.939 244.458 375.62 243.632 375.62 242.652C375.62 241.365 376.076 240.311 376.987 239.491C377.899 238.659 379.078 238.243 380.525 238.243C381.755 238.243 382.804 238.511 383.669 239.046C384.535 239.582 385.168 240.345 385.566 241.336L383.635 242.413C383.396 241.695 382.997 241.148 382.439 240.772C381.881 240.396 381.197 240.208 380.388 240.208C379.659 240.208 379.055 240.425 378.577 240.858C378.11 241.279 377.876 241.809 377.876 242.447C377.876 243.074 378.11 243.592 378.577 244.002C379.044 244.413 380.012 244.863 381.482 245.353C383.145 245.934 384.262 246.566 384.832 247.25C385.413 247.933 385.703 248.879 385.703 250.086C385.703 251.476 385.208 252.587 384.216 253.419C383.225 254.251 381.892 254.667 380.217 254.667C378.93 254.667 377.819 254.376 376.885 253.795C375.962 253.202 375.295 252.371 374.885 251.3Z" fill="black"/>
</g>
</svg>
