<svg width="809" height="637" viewBox="0 0 809 637" fill="none" xmlns="http://www.w3.org/2000/svg">
<g id="undraw_Notes_re_pxhw 1" clip-path="url(#clip0)">
<g id="leaf1">
<path id="Path 438" d="M427.459 279.532C424.626 280.52 421.585 280.767 418.627 280.25C415.67 279.734 412.896 278.471 410.574 276.582C404.66 271.659 402.805 263.551 401.297 256.041L396.834 233.828L406.177 240.208C412.896 244.796 419.766 249.531 424.418 256.177C429.07 262.822 431.1 271.895 427.363 279.086" fill="#9CECD6"/>
<path id="Path 439" d="M426.017 307.972C427.193 299.475 428.403 290.869 427.576 282.281C426.843 274.655 424.497 267.207 419.72 261.097C417.185 257.861 414.1 255.088 410.603 252.904C409.692 252.333 408.853 253.766 409.761 254.334C415.81 258.126 420.489 263.724 423.123 270.323C426.032 277.661 426.5 285.661 425.998 293.456C425.696 298.17 425.052 302.853 424.406 307.531C424.354 307.742 424.386 307.965 424.495 308.154C424.603 308.343 424.78 308.485 424.989 308.549C425.203 308.606 425.43 308.578 425.623 308.469C425.815 308.361 425.956 308.182 426.016 307.971L426.017 307.972Z" fill="#F2F2F2"/>
</g>
<g id="leaf2">
<path id="Path 442" d="M417.553 294.338C416.338 296.17 414.668 297.661 412.703 298.667C410.739 299.673 408.546 300.16 406.337 300.081C400.658 299.814 395.925 295.885 391.665 292.153L379.062 281.117L387.403 280.722C393.401 280.437 399.554 280.169 405.267 282.006C410.98 283.842 416.249 288.256 417.294 294.12" fill="#9CECD6"/>
<path id="Path 443" d="M429.341 312.856C423.68 302.922 417.113 291.881 405.38 288.352C402.118 287.374 398.697 287.024 395.302 287.32C394.232 287.411 394.499 289.047 395.567 288.956C401.258 288.487 406.938 289.977 411.65 293.176C416.185 296.237 419.716 300.493 422.705 305.006C424.535 307.771 426.175 310.653 427.815 313.531C428.339 314.451 429.871 313.786 429.341 312.856Z" fill="#E6F3F0"/>
</g>
<path id="Vector" d="M298 168H19V313H298V168Z" fill="url(#paint0_linear)" fill-opacity="0.48"/>
<path id="Vector_2" d="M304 314H19V165H304V314ZM24.0893 309.006H298.911V169.994H24.0893V309.006Z" fill="black"/>
<path id="left-arm" d="M258.362 165.879C257.737 165.012 257.313 164.02 257.119 162.974C256.926 161.928 256.968 160.853 257.243 159.825C257.517 158.797 258.018 157.84 258.709 157.023C259.4 156.205 260.265 155.547 261.243 155.094L281.731 92L296 99.2901L271.374 159.017C272.039 160.683 272.059 162.531 271.431 164.211C270.804 165.891 269.571 167.286 267.967 168.132C266.363 168.978 264.499 169.216 262.729 168.8C260.959 168.385 259.405 167.346 258.362 165.879V165.879Z" fill="#9F616A"/>
<path id="Vector_3" d="M276.289 101.108C276.096 100.662 275.997 100.178 276 99.6887C276.003 99.1993 276.107 98.7162 276.305 98.2725L283.222 82.7736C283.904 80.3725 285.472 78.3513 287.582 77.1531C289.692 75.9549 292.171 75.6775 294.477 76.3819C296.783 77.0862 298.726 78.7147 299.882 80.9103C301.037 83.1059 301.31 85.6894 300.64 88.0943L298.329 105.073C298.263 105.558 298.097 106.022 297.843 106.433C297.59 106.845 297.254 107.195 296.859 107.46C296.464 107.724 296.019 107.897 295.554 107.966C295.089 108.035 294.615 107.999 294.165 107.86L278.34 102.973C277.889 102.835 277.473 102.596 277.119 102.274C276.765 101.952 276.482 101.555 276.289 101.108Z" fill="#9CECD6"/>
<path id="Vector_4" d="M334 102L332.845 118.154L293.577 132L293 116.423L334 102Z" fill="#9F616A"/>
<path id="Vector_5" d="M284.686 80.4158L297.062 71.5446L317.312 66L334.187 69.3267L337 95.3861L333.625 112.02L289.749 122L285.249 114.238C285.249 114.238 275.124 104.257 282.999 93.1683L284.686 80.4158Z" fill="#9CECD6"/>
<g id="hair">
<path id="Vector_6" d="M280.41 56.8696V42.2144C280.41 36.014 282.893 30.0676 287.314 25.6833C291.735 21.2989 297.731 18.8358 303.983 18.8358C310.235 18.8358 316.231 21.2989 320.651 25.6833C325.072 30.0676 327.556 36.014 327.556 42.2144V56.8696C327.555 57.7022 327.221 58.5005 326.627 59.0892C326.034 59.678 325.229 60.0091 324.389 60.0101H283.576C282.737 60.0091 281.932 59.678 281.338 59.0892C280.745 58.5005 280.411 57.7022 280.41 56.8696Z" fill="#2F2E41"/>
</g>
<g id="head">
<path id="Vector_7" d="M303.035 59.8658C312.58 59.8658 320.318 52.1918 320.318 42.7255C320.318 33.2591 312.58 25.5851 303.035 25.5851C293.49 25.5851 285.752 33.2591 285.752 42.7255C285.752 52.1918 293.49 59.8658 303.035 59.8658Z" fill="#9F616A"/>
<path id="Vector_8" d="M285.278 42.6595C285.113 42.4704 284.991 42.2484 284.92 42.0084C284.849 41.7684 284.83 41.5161 284.866 41.2685L286.914 27.1299C286.954 26.8422 287.066 26.569 287.24 26.3352C287.414 26.1014 287.644 25.9142 287.909 25.7907C298.359 20.9404 308.956 20.9342 319.405 25.7723C319.683 25.9026 319.921 26.102 320.097 26.3511C320.273 26.6002 320.381 26.8903 320.411 27.1932L321.777 41.3503C321.801 41.5923 321.773 41.8366 321.696 42.0673C321.618 42.298 321.493 42.5102 321.328 42.6901C321.163 42.87 320.962 43.0138 320.738 43.1122C320.514 43.2105 320.271 43.2613 320.026 43.2612H316.56C316.226 43.2604 315.898 43.1654 315.616 42.9872C315.334 42.809 315.108 42.5549 314.966 42.2546L313.47 39.0761C313.373 38.8702 313.212 38.7012 313.01 38.5945C312.807 38.4878 312.576 38.4492 312.35 38.4845C312.123 38.5198 311.915 38.6272 311.756 38.7903C311.596 38.9534 311.495 39.1635 311.466 39.3889L311.171 41.7326C311.117 42.1544 310.91 42.5424 310.589 42.8238C310.268 43.1052 309.854 43.2607 309.425 43.2612H286.608C286.355 43.2613 286.106 43.2076 285.877 43.1037C285.647 42.9999 285.443 42.8484 285.278 42.6595V42.6595Z" fill="#2F2E41"/>
</g>
<path id="Vector_9" d="M330.999 304L321.513 303.999L317 267L331 267.001L330.999 304Z" fill="#9F616A"/>
<path id="Vector_10" d="M333.999 314L304 313.999V313.59C304 310.251 305.231 307.049 307.42 304.688C309.61 302.327 312.58 301 315.677 301H315.677L334 301.001L333.999 314Z" fill="#2F2E41"/>
<path id="Vector_11" d="M325 225.253L318.411 232L288 210.958L297.726 201L325 225.253Z" fill="#9F616A"/>
<path id="Vector_12" d="M333 229.991L312.084 254L311.8 253.717C309.483 251.407 308.119 248.208 308.007 244.823C307.896 241.437 309.046 238.143 311.205 235.664L311.205 235.664L323.98 221L333 229.991Z" fill="#2F2E41"/>
<g id="Frame 1">
<path id="Vector_13" d="M334.799 117.03L337.929 120.115C353.587 135.549 357.442 156.949 355.561 178.697C355.298 181.922 354.774 185.121 353.995 188.263C348.349 210.524 351.736 281.757 340.445 286.209L338.186 294L316.167 293.198L316.732 286.209C316.732 286.209 311.651 275.635 315.038 268.957C318.426 262.279 325.765 212.75 325.765 212.75L321.813 172.124L292.454 186.594C292.454 186.594 307.698 194.941 306.569 200.506C306.569 200.506 315.603 202.732 313.344 208.298L316.732 214.976L308.828 227.219C308.828 227.219 255.756 196.054 260.273 180.472C264.789 164.89 293.019 153.76 293.019 153.76L295.277 137.064L293.33 127.967L332.832 113L334.799 117.03Z" fill="#2F2E41"/>
</g>
<path id="right-arm" d="M359.957 157.798C358.918 157.557 357.945 157.089 357.105 156.43C356.266 155.77 355.581 154.934 355.099 153.98C354.617 153.026 354.349 151.978 354.315 150.909C354.281 149.841 354.48 148.778 354.901 147.795L328 86.8845L343.388 83L364.992 144.094C366.593 144.911 367.839 146.288 368.494 147.964C369.149 149.64 369.169 151.498 368.548 153.188C367.928 154.877 366.71 156.279 365.127 157.129C363.544 157.979 361.704 158.217 359.957 157.798V157.798Z" fill="#9F616A"/>
<path id="Vector_14" d="M330.103 98.7045C329.689 98.5064 329.319 98.215 329.02 97.8503C328.721 97.4856 328.498 97.0561 328.368 96.5912L323.828 80.3547C322.843 78.1065 322.732 75.5324 323.52 73.1969C324.307 70.8614 325.929 68.9551 328.03 67.8961C330.13 66.837 332.538 66.7116 334.724 67.5473C336.911 68.383 338.699 70.1117 339.695 72.3543L348.475 86.5297C348.726 86.9343 348.892 87.3919 348.962 87.8712C349.032 88.3506 349.005 88.8405 348.882 89.3076C348.759 89.7747 348.544 90.208 348.25 90.578C347.956 90.948 347.592 91.246 347.181 91.4517L332.733 98.6812C332.322 98.8871 331.874 98.9959 331.42 98.9999C330.966 99.0039 330.517 98.9032 330.103 98.7045V98.7045Z" fill="#9CECD6"/>
<path id="welcome to Italy" d="M51.3672 235.336L43.0703 213.211H46.0938L51.5078 228.188L58.0469 212.109L64.5625 228.188L70 213.211H73.0234L64.7031 235.336L58.0938 218.789L51.3672 235.336ZM91.8906 221.227C91.75 219.32 91.1172 217.844 89.9922 216.797C88.8672 215.75 87.3438 215.227 85.4219 215.227C83.6719 215.227 82.2031 215.773 81.0156 216.867C79.8438 217.961 79.1641 219.414 78.9766 221.227H91.8906ZM95.3125 223.688H78.7891C78.8672 226.375 79.5391 228.484 80.8047 230.016C82.0703 231.547 83.7656 232.312 85.8906 232.312C87.4219 232.312 88.7656 231.898 89.9219 231.07C91.0781 230.242 92.0391 228.992 92.8047 227.32L95.4531 228.773C94.3906 230.883 93.0859 232.438 91.5391 233.438C90.0078 234.422 88.125 234.914 85.8906 234.914C82.8438 234.914 80.375 233.898 78.4844 231.867C76.6094 229.82 75.6719 227.141 75.6719 223.828C75.6719 220.422 76.6016 217.672 78.4609 215.578C80.3359 213.484 82.7812 212.438 85.7969 212.438C88.6719 212.438 90.9766 213.406 92.7109 215.344C94.4453 217.266 95.3125 219.836 95.3125 223.055V223.688ZM104.477 234H101.5V197.672H104.477V234ZM128.547 217.008C127.578 216.336 126.547 215.836 125.453 215.508C124.359 215.164 123.234 214.992 122.078 214.992C119.5 214.992 117.445 215.82 115.914 217.477C114.383 219.117 113.617 221.312 113.617 224.062C113.617 226.5 114.406 228.508 115.984 230.086C117.578 231.664 119.609 232.453 122.078 232.453C123.203 232.453 124.336 232.258 125.477 231.867C126.633 231.477 127.766 230.891 128.875 230.109V233.273C127.859 233.852 126.734 234.281 125.5 234.562C124.266 234.859 122.945 235.008 121.539 235.008C118.367 235.008 115.766 233.969 113.734 231.891C111.703 229.797 110.688 227.125 110.688 223.875C110.688 220.484 111.742 217.734 113.852 215.625C115.977 213.5 118.734 212.438 122.125 212.438C123.375 212.438 124.547 212.562 125.641 212.812C126.75 213.047 127.734 213.391 128.594 213.844L128.547 217.008ZM143.805 232.219C146.086 232.219 148.016 231.398 149.594 229.758C151.188 228.102 151.984 226.078 151.984 223.688C151.984 221.266 151.195 219.234 149.617 217.594C148.039 215.953 146.102 215.133 143.805 215.133C141.523 215.133 139.594 215.953 138.016 217.594C136.438 219.234 135.648 221.266 135.648 223.688C135.648 226.078 136.438 228.102 138.016 229.758C139.594 231.398 141.523 232.219 143.805 232.219ZM143.711 234.914C142.227 234.914 140.805 234.617 139.445 234.023C138.086 233.445 136.852 232.609 135.742 231.516C134.695 230.484 133.898 229.297 133.352 227.953C132.805 226.609 132.531 225.172 132.531 223.641C132.531 222.125 132.812 220.688 133.375 219.328C133.938 217.969 134.742 216.766 135.789 215.719C136.852 214.656 138.062 213.844 139.422 213.281C140.781 212.719 142.211 212.438 143.711 212.438C145.242 212.438 146.695 212.719 148.07 213.281C149.461 213.844 150.695 214.656 151.773 215.719C152.852 216.781 153.672 217.992 154.234 219.352C154.812 220.711 155.102 222.141 155.102 223.641C155.102 225.141 154.82 226.57 154.258 227.93C153.695 229.273 152.883 230.469 151.82 231.516C150.727 232.609 149.477 233.445 148.07 234.023C146.68 234.617 145.227 234.914 143.711 234.914ZM163.961 234H161.078V213.211H163.961V216.469C164.648 215.156 165.555 214.156 166.68 213.469C167.805 212.781 169.102 212.438 170.57 212.438C172.086 212.438 173.375 212.789 174.438 213.492C175.516 214.18 176.344 215.195 176.922 216.539C177.75 215.164 178.766 214.141 179.969 213.469C181.172 212.781 182.57 212.438 184.164 212.438C186.367 212.438 188.102 213.109 189.367 214.453C190.633 215.781 191.266 217.609 191.266 219.938V234H188.383V221.086C188.383 219.055 187.961 217.523 187.117 216.492C186.289 215.461 185.047 214.945 183.391 214.945C181.406 214.945 179.945 215.594 179.008 216.891C178.086 218.188 177.625 220.242 177.625 223.055V234H174.766V221.086C174.766 218.961 174.367 217.406 173.57 216.422C172.773 215.438 171.539 214.945 169.867 214.945C167.836 214.945 166.344 215.602 165.391 216.914C164.438 218.227 163.961 220.273 163.961 223.055V234ZM213.391 221.227C213.25 219.32 212.617 217.844 211.492 216.797C210.367 215.75 208.844 215.227 206.922 215.227C205.172 215.227 203.703 215.773 202.516 216.867C201.344 217.961 200.664 219.414 200.477 221.227H213.391ZM216.812 223.688H200.289C200.367 226.375 201.039 228.484 202.305 230.016C203.57 231.547 205.266 232.312 207.391 232.312C208.922 232.312 210.266 231.898 211.422 231.07C212.578 230.242 213.539 228.992 214.305 227.32L216.953 228.773C215.891 230.883 214.586 232.438 213.039 233.438C211.508 234.422 209.625 234.914 207.391 234.914C204.344 234.914 201.875 233.898 199.984 231.867C198.109 229.82 197.172 227.141 197.172 223.828C197.172 220.422 198.102 217.672 199.961 215.578C201.836 213.484 204.281 212.438 207.297 212.438C210.172 212.438 212.477 213.406 214.211 215.344C215.945 217.266 216.812 219.836 216.812 223.055V223.688ZM237.25 215.672H233.43V213.211H237.25V204.68H240.086V213.211H244.258V215.672H240.086V234H237.25V215.672ZM258.086 232.219C260.367 232.219 262.297 231.398 263.875 229.758C265.469 228.102 266.266 226.078 266.266 223.688C266.266 221.266 265.477 219.234 263.898 217.594C262.32 215.953 260.383 215.133 258.086 215.133C255.805 215.133 253.875 215.953 252.297 217.594C250.719 219.234 249.93 221.266 249.93 223.688C249.93 226.078 250.719 228.102 252.297 229.758C253.875 231.398 255.805 232.219 258.086 232.219ZM257.992 234.914C256.508 234.914 255.086 234.617 253.727 234.023C252.367 233.445 251.133 232.609 250.023 231.516C248.977 230.484 248.18 229.297 247.633 227.953C247.086 226.609 246.812 225.172 246.812 223.641C246.812 222.125 247.094 220.688 247.656 219.328C248.219 217.969 249.023 216.766 250.07 215.719C251.133 214.656 252.344 213.844 253.703 213.281C255.062 212.719 256.492 212.438 257.992 212.438C259.523 212.438 260.977 212.719 262.352 213.281C263.742 213.844 264.977 214.656 266.055 215.719C267.133 216.781 267.953 217.992 268.516 219.352C269.094 220.711 269.383 222.141 269.383 223.641C269.383 225.141 269.102 226.57 268.539 227.93C267.977 229.273 267.164 230.469 266.102 231.516C265.008 232.609 263.758 233.445 262.352 234.023C260.961 234.617 259.508 234.914 257.992 234.914ZM121.281 292V257.688H124.398V292H121.281ZM133.141 273.672H129.32V271.211H133.141V262.68H135.977V271.211H140.148V273.672H135.977V292H133.141V273.672ZM145.773 281.828C145.773 284.516 146.375 286.586 147.578 288.039C148.797 289.492 150.531 290.219 152.781 290.219C154.969 290.219 156.688 289.43 157.938 287.852C159.203 286.258 159.836 284.07 159.836 281.289C159.836 278.742 159.211 276.742 157.961 275.289C156.711 273.82 155 273.086 152.828 273.086C150.656 273.086 148.938 273.867 147.672 275.43C146.406 276.977 145.773 279.109 145.773 281.828ZM159.789 292V288.203C159.102 289.734 158.133 290.906 156.883 291.719C155.648 292.516 154.188 292.914 152.5 292.914C149.516 292.914 147.109 291.891 145.281 289.844C143.469 287.797 142.562 285.094 142.562 281.734C142.562 278.406 143.461 275.695 145.258 273.602C147.055 271.492 149.375 270.438 152.219 270.438C153.984 270.438 155.508 270.828 156.789 271.609C158.086 272.375 159.086 273.508 159.789 275.008V271.211H162.672V292H159.789ZM173.57 292H170.594V255.672H173.57V292ZM178.633 271.211H181.703L187.656 287.477L193.141 271.211H196.211L185.453 302.453H182.477L186.109 291.859L178.633 271.211Z" fill="black"/>
</g>
<defs>
<linearGradient id="paint0_linear" x1="158" y1="146" x2="158" y2="325" gradientUnits="userSpaceOnUse">
<stop offset="0.0729167" stop-color="#FF0000" stop-opacity="0.9"/>
<stop offset="0.567708" stop-color="#EDDAD4" stop-opacity="0.960938"/>
<stop offset="0.885417" stop-color="#0D8D1A"/>
</linearGradient>
<clipPath id="clip0">
<rect width="438" height="334" fill="white"/>
</clipPath>
</defs>
</svg>
