<svg width="827" height="506" viewBox="0 0 827 506" fill="none" xmlns="http://www.w3.org/2000/svg">
<rect width="827" height="506" fill="white"/>
<g id="undraw_Notes_re_pxhw 1" clip-path="url(#clip0)">
<g id="leaf1">
<path id="Path 438" d="M771.627 456.141C767.704 457.52 763.492 457.865 759.396 457.144C755.301 456.422 751.46 454.658 748.244 452.022C740.054 445.147 737.486 433.826 735.398 423.34L729.218 392.323L742.156 401.232C751.46 407.638 760.974 414.25 767.416 423.529C773.857 432.809 776.668 445.477 771.494 455.517" fill="#9CECD6"/>
<path id="Path 439" d="M769.629 495.851C771.258 483.987 772.933 471.97 771.788 459.979C770.773 449.33 767.524 438.931 760.91 430.4C757.399 425.881 753.127 422.01 748.285 418.96C747.023 418.163 745.861 420.163 747.118 420.957C755.495 426.251 761.975 434.068 765.622 443.282C769.651 453.528 770.298 464.698 769.604 475.582C769.184 482.165 768.293 488.704 767.398 495.235C767.327 495.53 767.371 495.841 767.521 496.106C767.671 496.37 767.916 496.567 768.206 496.657C768.502 496.737 768.817 496.697 769.083 496.546C769.35 496.394 769.545 496.144 769.628 495.849L769.629 495.851Z" fill="#F2F2F2"/>
</g>
<g id="leaf2">
<path id="Path 442" d="M757.908 476.815C756.226 479.372 753.913 481.454 751.193 482.858C748.473 484.263 745.436 484.943 742.377 484.833C734.512 484.46 727.959 478.973 722.06 473.763L704.608 458.354L716.158 457.801C724.464 457.403 732.984 457.03 740.896 459.595C748.807 462.159 756.103 468.321 757.55 476.51" fill="#9CECD6"/>
<path id="Path 443" d="M774.232 502.671C766.393 488.799 757.3 473.383 741.051 468.455C736.534 467.09 731.797 466.601 727.096 467.014C725.614 467.142 725.984 469.426 727.463 469.299C735.343 468.644 743.209 470.725 749.735 475.191C756.015 479.465 760.904 485.408 765.042 491.71C767.578 495.57 769.848 499.594 772.119 503.613C772.844 504.897 774.966 503.97 774.232 502.671Z" fill="#E6F3F0"/>
</g>
<path id="Vector" d="M174.513 235.622C177.624 235.622 180.146 233.1 180.146 229.989C180.146 226.878 177.624 224.356 174.513 224.356C171.403 224.356 168.881 226.878 168.881 229.989C168.881 233.1 171.403 235.622 174.513 235.622Z" fill="#E5E5E5"/>
<path id="Vector_2" d="M591.717 300H206V502.209H591.717V300Z" fill="#16161D"/>
<path id="Vector_3" d="M599 505.13H206.27V295.908H599V505.13ZM213.283 498.117H591.987V302.921H213.283V498.117Z" fill="#B8FAE8"/>
<path id="Vector_4" d="M537.496 421H293V429.631H537.496V421Z" fill="#E1F4EF"/>
<path id="Vector_5" d="M257.633 432.265C260.743 432.265 263.265 429.743 263.265 426.633C263.265 423.522 260.743 421 257.633 421C254.522 421 252 423.522 252 426.633C252 429.743 254.522 432.265 257.633 432.265Z" fill="#9CECD6"/>
<path id="left-arm" d="M538.637 295.915C537.786 294.714 537.208 293.342 536.945 291.894C536.681 290.446 536.739 288.958 537.113 287.534C537.487 286.111 538.168 284.787 539.109 283.655C540.05 282.523 541.228 281.612 542.559 280.985L570.456 193.638L589.884 203.73L556.354 286.416C557.259 288.722 557.287 291.281 556.432 293.607C555.577 295.932 553.899 297.864 551.715 299.035C549.531 300.206 546.993 300.535 544.583 299.96C542.173 299.385 540.057 297.946 538.637 295.915V295.915Z" fill="#9F616A"/>
<path id="Vector_6" d="M561.428 205.716C561.161 205.125 561.024 204.483 561.028 203.835C561.032 203.186 561.175 202.546 561.449 201.958L571.004 181.415C571.946 178.233 574.112 175.554 577.026 173.966C579.94 172.378 583.365 172.01 586.55 172.944C589.735 173.877 592.42 176.035 594.016 178.946C595.612 181.856 595.989 185.28 595.064 188.467L591.871 210.971C591.779 211.613 591.551 212.228 591.201 212.774C590.85 213.32 590.386 213.784 589.841 214.135C589.295 214.485 588.68 214.714 588.038 214.806C587.396 214.897 586.741 214.849 586.119 214.665L564.26 208.188C563.638 208.004 563.063 207.688 562.574 207.262C562.085 206.835 561.694 206.308 561.428 205.716Z" fill="#9CECD6"/>
<path id="Vector_7" d="M642.019 209.183L640.461 231.001L587.475 249.702L586.696 228.663L642.019 209.183Z" fill="#9F616A"/>
<path id="Vector_8" d="M574.229 177.236L591.371 164.769L619.423 156.977L642.798 161.652L646.694 198.274L642.019 221.65L581.242 235.676L575.008 224.767C575.008 224.767 560.983 210.742 571.891 195.158L574.229 177.236Z" fill="#9CECD6"/>
<g id="head">
<path id="Vector_9" d="M567.995 145.237V124.774C567.995 116.116 571.434 107.813 577.556 101.691C583.678 95.5692 591.981 92.13 600.639 92.13C609.296 92.13 617.599 95.5692 623.721 101.691C629.843 107.813 633.282 116.116 633.282 124.774V145.237C633.281 146.399 632.819 147.514 631.997 148.336C631.175 149.158 630.06 149.62 628.897 149.622H572.38C571.218 149.62 570.103 149.158 569.281 148.336C568.459 147.514 567.997 146.399 567.995 145.237Z" fill="#2F2E41"/>
<path id="Vector_10" d="M599.327 149.42C612.545 149.42 623.26 138.705 623.26 125.487C623.26 112.269 612.545 101.554 599.327 101.554C586.109 101.554 575.394 112.269 575.394 125.487C575.394 138.705 586.109 149.42 599.327 149.42Z" fill="#9F616A"/>
<path id="Vector_11" d="M574.737 125.395C574.508 125.131 574.339 124.821 574.24 124.486C574.142 124.151 574.117 123.798 574.167 123.453L577.002 103.711C577.058 103.309 577.213 102.928 577.454 102.601C577.695 102.275 578.013 102.014 578.38 101.841C592.851 95.0685 607.525 95.06 621.996 101.815C622.38 101.997 622.71 102.276 622.954 102.624C623.198 102.971 623.347 103.376 623.388 103.799L625.28 123.567C625.313 123.905 625.274 124.246 625.167 124.568C625.06 124.89 624.887 125.186 624.658 125.438C624.43 125.689 624.151 125.89 623.841 126.027C623.53 126.164 623.195 126.235 622.855 126.235H618.056C617.592 126.234 617.139 126.101 616.748 125.853C616.357 125.604 616.045 125.249 615.848 124.83L613.777 120.391C613.643 120.104 613.419 119.868 613.139 119.719C612.859 119.57 612.538 119.516 612.225 119.565C611.912 119.615 611.623 119.765 611.402 119.992C611.182 120.22 611.041 120.514 611.002 120.828L610.593 124.101C610.518 124.69 610.232 125.231 609.787 125.624C609.342 126.017 608.769 126.234 608.175 126.235H576.578C576.229 126.235 575.884 126.16 575.566 126.015C575.248 125.87 574.966 125.659 574.737 125.395Z" fill="#2F2E41"/>
</g>
<path id="right-arm" d="M678.63 285.724C677.197 285.391 675.853 284.748 674.695 283.84C673.537 282.931 672.592 281.78 671.927 280.467C671.262 279.154 670.893 277.712 670.845 276.241C670.798 274.77 671.074 273.306 671.654 271.953L634.541 188.106L655.771 182.759L685.576 266.859C687.784 267.984 689.503 269.879 690.408 272.186C691.312 274.493 691.338 277.051 690.482 279.377C689.626 281.702 687.947 283.633 685.762 284.802C683.578 285.972 681.04 286.3 678.63 285.724Z" fill="#9F616A"/>
<path id="Vector_12" d="M635.806 203.133C635.214 202.868 634.686 202.478 634.258 201.991C633.83 201.503 633.512 200.929 633.327 200.307L626.838 178.601C625.43 175.595 625.272 172.154 626.397 169.031C627.523 165.909 629.841 163.361 632.843 161.945C635.845 160.529 639.285 160.361 642.411 161.478C645.536 162.596 648.091 164.907 649.515 167.905L662.063 186.856C662.421 187.397 662.659 188.009 662.759 188.65C662.86 189.291 662.821 189.946 662.645 190.57C662.469 191.194 662.161 191.774 661.742 192.268C661.322 192.763 660.801 193.161 660.213 193.436L639.565 203.102C638.978 203.377 638.338 203.522 637.689 203.528C637.04 203.533 636.398 203.398 635.806 203.133Z" fill="#9CECD6"/>
<path id="Vector_13" d="M639.353 490.356L625.845 490.355L619.419 438.253L639.355 438.254L639.353 490.356Z" fill="#9F616A"/>
<path id="Vector_14" d="M642.798 503.45L599.242 503.448V502.897C599.242 498.401 601.029 494.089 604.208 490.91C607.387 487.731 611.699 485.945 616.195 485.945H616.196L642.798 485.946L642.798 503.45Z" fill="#2F2E41"/>
<path id="Vector_15" d="M629.087 380.349L619.878 390.231L577.378 359.413L590.97 344.828L629.087 380.349Z" fill="#9F616A"/>
<path id="Vector_16" d="M641.015 386.755L611.321 418.619L610.918 418.244C607.629 415.179 605.692 410.932 605.534 406.439C605.375 401.946 607.008 397.573 610.073 394.284L610.073 394.283L628.209 374.821L641.015 386.755Z" fill="#2F2E41"/>
<g id="Frame 1">
<path id="Vector_17" d="M643.578 231.001L647.898 235.321C669.507 256.93 674.827 286.894 672.232 317.344C671.869 321.859 671.146 326.338 670.07 330.738C662.278 361.906 666.954 461.644 651.37 467.877L648.253 478.786L617.864 477.663L618.643 467.877C618.643 467.877 611.63 453.072 616.306 443.722C620.981 434.372 631.11 365.023 631.11 365.023L625.656 308.141L585.138 328.401C585.138 328.401 606.176 340.089 604.618 347.881C604.618 347.881 617.085 350.997 613.968 358.789L618.643 368.14L607.734 385.282C607.734 385.282 534.49 341.647 540.723 319.829C546.957 298.012 585.917 282.428 585.917 282.428L589.034 259.052L586.346 246.315L640.864 225.358L643.578 231.001Z" fill="#2F2E41"/>
</g>
<path id="Vector_18" d="M825.382 505.13H381.382C381.117 505.13 380.862 505.025 380.675 504.837C380.487 504.65 380.382 504.395 380.382 504.13C380.382 503.865 380.487 503.61 380.675 503.423C380.862 503.235 381.117 503.13 381.382 503.13H825.382C825.647 503.13 825.901 503.235 826.089 503.423C826.277 503.61 826.382 503.865 826.382 504.13C826.382 504.395 826.277 504.65 826.089 504.837C825.901 505.025 825.647 505.13 825.382 505.13Z" fill="#CBCBCB"/>
<path id="Our Sweets" d="M257.591 409.266C260.553 409.266 263.356 408.719 265.999 407.625C268.642 406.531 271.023 404.936 273.143 402.84C275.216 400.721 276.8 398.317 277.894 395.628C279.01 392.916 279.568 390.068 279.568 387.083C279.568 384.075 279.021 381.238 277.928 378.572C276.834 375.883 275.239 373.468 273.143 371.326C271.069 369.23 268.699 367.635 266.033 366.541C263.39 365.447 260.576 364.9 257.591 364.9C254.629 364.9 251.837 365.447 249.217 366.541C246.596 367.635 244.227 369.23 242.107 371.326C240.011 373.491 238.416 375.906 237.322 378.572C236.229 381.215 235.682 384.052 235.682 387.083C235.682 390.091 236.229 392.939 237.322 395.628C238.416 398.294 240.011 400.698 242.107 402.84C244.204 404.959 246.551 406.565 249.148 407.659C251.746 408.73 254.56 409.266 257.591 409.266ZM284.388 387.083C284.388 390.615 283.715 393.976 282.371 397.166C281.027 400.333 279.09 403.159 276.561 405.643C273.986 408.149 271.08 410.063 267.845 411.385C264.609 412.684 261.191 413.333 257.591 413.333C253.991 413.333 250.573 412.684 247.337 411.385C244.124 410.063 241.242 408.149 238.689 405.643C236.137 403.113 234.189 400.276 232.845 397.132C231.523 393.965 230.862 390.615 230.862 387.083C230.862 383.506 231.523 380.133 232.845 376.966C234.189 373.776 236.137 370.916 238.689 368.387C241.196 365.903 244.056 364.023 247.269 362.747C250.481 361.471 253.922 360.833 257.591 360.833C261.282 360.833 264.734 361.482 267.947 362.781C271.183 364.057 274.054 365.926 276.561 368.387C279.113 370.916 281.049 373.776 282.371 376.966C283.715 380.133 284.388 383.506 284.388 387.083ZM298.06 381.683V396.824C298.06 401.427 298.709 404.674 300.008 406.565C301.329 408.457 303.551 409.402 306.673 409.402C309.772 409.402 311.993 408.445 313.338 406.531C314.682 404.617 315.354 401.382 315.354 396.824V381.683H319.524V398.978C319.524 403.694 318.442 407.272 316.277 409.71C314.113 412.125 310.934 413.333 306.741 413.333C302.526 413.333 299.324 412.125 297.137 409.71C294.949 407.272 293.855 403.694 293.855 398.978V381.683H298.06ZM334.974 387.767C336.523 385.146 338.038 383.289 339.52 382.195C341.023 381.102 342.767 380.555 344.749 380.555C345.341 380.555 345.934 380.612 346.526 380.726C347.142 380.84 347.745 380.999 348.338 381.204L346.971 385.169C346.515 385.032 346.036 384.918 345.535 384.827C345.057 384.736 344.59 384.69 344.134 384.69C341.604 384.69 339.44 385.875 337.64 388.245C335.862 390.615 334.974 393.566 334.974 397.098V412H330.77V381.683H334.974V387.767ZM369.803 403.592L373.699 401.507C374.428 403.968 375.682 405.882 377.459 407.249C379.259 408.593 381.412 409.266 383.919 409.266C387.086 409.266 389.559 408.331 391.336 406.463C393.113 404.594 394.002 402.008 394.002 398.704C394.002 396.289 393.398 394.284 392.19 392.688C391.006 391.093 388.442 389.248 384.5 387.151C379.464 384.485 376.115 382.138 374.451 380.11C372.788 378.082 371.956 375.644 371.956 372.796C371.956 369.241 373.152 366.347 375.545 364.114C377.96 361.881 381.082 360.765 384.91 360.765C387.417 360.765 389.593 361.3 391.438 362.371C393.307 363.419 394.822 365.003 395.984 367.122L392.464 369.241C391.735 367.806 390.698 366.712 389.354 365.96C388.032 365.208 386.46 364.832 384.637 364.832C382.176 364.832 380.216 365.561 378.758 367.02C377.299 368.455 376.57 370.403 376.57 372.864C376.57 376.373 379.464 379.643 385.252 382.674C386.3 383.221 387.098 383.642 387.645 383.938C391.906 386.285 394.754 388.507 396.189 390.604C397.625 392.677 398.343 395.377 398.343 398.704C398.343 403.193 397.033 406.759 394.412 409.402C391.792 412.023 388.226 413.333 383.714 413.333C380.433 413.333 377.618 412.524 375.271 410.906C372.947 409.266 371.124 406.827 369.803 403.592ZM415.228 413.948L403.128 381.683H407.537L415.433 403.523L424.969 380.076L434.471 403.523L442.4 381.683H446.81L434.676 413.948L425.037 389.817L415.228 413.948ZM474.324 393.372C474.119 390.592 473.196 388.439 471.556 386.912C469.915 385.385 467.693 384.622 464.891 384.622C462.339 384.622 460.197 385.42 458.465 387.015C456.756 388.61 455.765 390.729 455.491 393.372H474.324ZM479.314 396.961H455.218C455.332 400.88 456.312 403.956 458.157 406.189C460.003 408.423 462.475 409.539 465.574 409.539C467.807 409.539 469.767 408.935 471.453 407.728C473.139 406.52 474.541 404.697 475.657 402.259L479.52 404.378C477.97 407.454 476.067 409.721 473.812 411.18C471.578 412.615 468.833 413.333 465.574 413.333C461.131 413.333 457.531 411.852 454.773 408.89C452.039 405.905 450.672 401.997 450.672 397.166C450.672 392.199 452.028 388.188 454.739 385.135C457.474 382.081 461.04 380.555 465.438 380.555C469.63 380.555 472.991 381.967 475.521 384.793C478.05 387.596 479.314 391.344 479.314 396.038V396.961ZM509.119 393.372C508.914 390.592 507.991 388.439 506.351 386.912C504.71 385.385 502.488 384.622 499.686 384.622C497.133 384.622 494.992 385.42 493.26 387.015C491.551 388.61 490.56 390.729 490.286 393.372H509.119ZM514.109 396.961H490.013C490.127 400.88 491.106 403.956 492.952 406.189C494.798 408.423 497.27 409.539 500.369 409.539C502.602 409.539 504.562 408.935 506.248 407.728C507.934 406.52 509.336 404.697 510.452 402.259L514.314 404.378C512.765 407.454 510.862 409.721 508.606 411.18C506.373 412.615 503.628 413.333 500.369 413.333C495.926 413.333 492.326 411.852 489.568 408.89C486.834 405.905 485.467 401.997 485.467 397.166C485.467 392.199 486.823 388.188 489.534 385.135C492.269 382.081 495.835 380.555 500.232 380.555C504.425 380.555 507.786 381.967 510.315 384.793C512.845 387.596 514.109 391.344 514.109 396.038V396.961ZM523.748 385.271H518.177V381.683H523.748V369.241H527.884V381.683H533.968V385.271H527.884V412H523.748V385.271ZM536.771 406.6L540.77 404.31C541.43 405.996 542.387 407.272 543.641 408.138C544.894 408.981 546.432 409.402 548.255 409.402C550.032 409.402 551.445 408.958 552.493 408.069C553.541 407.158 554.065 405.95 554.065 404.446C554.065 402.122 552.003 400.151 547.879 398.533C547.446 398.374 547.104 398.237 546.854 398.123C543.663 396.87 541.43 395.582 540.154 394.261C538.878 392.916 538.24 391.264 538.24 389.305C538.24 386.73 539.152 384.622 540.975 382.981C542.798 381.318 545.156 380.486 548.05 380.486C550.511 380.486 552.607 381.022 554.339 382.093C556.071 383.164 557.335 384.69 558.133 386.673L554.271 388.826C553.792 387.391 552.994 386.297 551.878 385.545C550.761 384.793 549.394 384.417 547.776 384.417C546.318 384.417 545.11 384.85 544.153 385.716C543.219 386.559 542.752 387.618 542.752 388.895C542.752 390.148 543.219 391.185 544.153 392.005C545.088 392.825 547.024 393.725 549.964 394.705C553.291 395.867 555.524 397.132 556.663 398.499C557.825 399.866 558.406 401.757 558.406 404.173C558.406 406.953 557.415 409.174 555.433 410.838C553.45 412.501 550.784 413.333 547.435 413.333C544.86 413.333 542.638 412.752 540.77 411.59C538.924 410.405 537.591 408.742 536.771 406.6Z" fill="white"/>
</g>
<defs>
<clipPath id="clip0">
<rect width="826.382" height="505.13" fill="white"/>
</clipPath>
</defs>
</svg>
